<svg xmlns="http://www.w3.org/2000/svg" viewBox="0 0 24 24" fill="none" stroke="hsl(35 91% 55%)" stroke-width="2" stroke-linecap="round" stroke-linejoin="round">
  <path d="M9.5 2A2.5 2.5 0 0 1 12 4.5v15a2.5 2.5 0 0 1-4.96.44 2.5 2.5 0 0 1-2.96-3.08.5.5 0 0 1 .9-.28 1.5 1.5 0 0 0 1.94 1.51.5.5 0 0 1 .51-.67.5.5 0 0 1 .4-.21h0a1.5 1.5 0 0 0 1.28-2.28.5.5 0 0 1-.39-.68c.07-.22.33-.35.56-.35a1.5 1.5 0 0 0 1.4-1.98.5.5 0 0 1-.4-.68A1.5 1.5 0 0 0 9.5 6a.5.5 0 0 1-.46-.72A1.5 1.5 0 0 0 9.5 2Z"/>
  <path d="M14.5 2A2.5 2.5 0 0 0 12 4.5v15a2.5 2.5 0 0 0 4.96.44 2.5 2.5 0 0 0 2.96-3.08.5.5 0 0 0-.9-.28 1.5 1.5 0 0 1-1.94 1.51.5.5 0 0 0-.51-.67.5.5 0 0 0-.4-.21h0a1.5 1.5 0 0 1-1.28-2.28.5.5 0 0 0 .39-.68c-.07-.22-.33-.35-.56-.35a1.5 1.5 0 0 1-1.4-1.98.5.5 0 0 0 .4-.68A1.5 1.5 0 0 1 14.5 6a.5.5 0 0 0 .46-.72A1.5 1.5 0 0 1 14.5 2Z"/>
</svg>
